<?xml version="1.0" encoding="UTF-8"?>
<svg width="32" height="32" viewBox="0 0 32 32" fill="none" xmlns="http://www.w3.org/2000/svg">
  <!-- Fundo circular com gradiente -->
  <circle cx="16" cy="16" r="16" fill="url(#paint0_linear)"/>
  
  <!-- Ãcone de cadeado/shield estilizado -->
  <path d="M16 6C12.5 6 9.5 8.5 9.5 12V14H8V24H24V14H22.5V12C22.5 8.5 19.5 6 16 6ZM16 8C18.5 8 20.5 9.5 20.5 12V14H11.5V12C11.5 9.5 13.5 8 16 8ZM10 16H22V22H10V16Z" 
        fill="#4ade80"/>
  
  <!-- Matrix-style dots -->
  <circle cx="13" cy="19" r="1" fill="#4ade80"/>
  <circle cx="16" cy="19" r="1" fill="#4ade80"/>
  <circle cx="19" cy="19" r="1" fill="#4ade80"/>
  
  <!-- Gradiente de fundo -->
  <defs>
    <linearGradient id="paint0_linear" x1="0" y1="0" x2="32" y2="32" gradientUnits="userSpaceOnUse">
      <stop offset="0%" stop-color="#0f172a"/>
      <stop offset="100%" stop-color="#1e293b"/>
    </linearGradient>
  </defs>
</svg> 